<?xml version="1.0" encoding="UTF-8"?>
<!DOCTYPE svg PUBLIC "-//W3C//DTD SVG 1.1//EN" "http://www.w3.org/Graphics/SVG/1.1/DTD/svg11.dtd">
<!-- Creator: CorelDRAW X8 -->
<svg xmlns="http://www.w3.org/2000/svg" xml:space="preserve" width="102.138mm" height="102.138mm" version="1.1" style="shape-rendering:geometricPrecision; text-rendering:geometricPrecision; image-rendering:optimizeQuality; fill-rule:evenodd; clip-rule:evenodd"
viewBox="0 0 10214 10214"
 xmlns:xlink="http://www.w3.org/1999/xlink">
 <defs>
  <style type="text/css">
   <![CDATA[
    .fil1 {fill:#163F57;fill-rule:nonzero}
    .fil0 {fill:white;fill-rule:nonzero}
   ]]>
  </style>
 </defs>
 <g id="Слой_x0020_1">
  <metadata id="CorelCorpID_0Corel-Layer"/>
  <polygon class="fil0" points="0,0 10214,0 10214,10214 0,10214 "/>
  <path class="fil1" d="M2164 6919c0,192 27,332 81,418 54,87 157,149 310,185 153,36 397,54 733,54 18,0 27,18 27,54 0,36 -9,54 -27,54 -246,0 -438,-3 -576,-9l-782 -9 -594 9c-108,6 -258,9 -450,9 -12,0 -18,-18 -18,-54 0,-36 6,-54 18,-54 234,0 407,-15 518,-45 111,-30 185,-89 224,-176 39,-86 59,-220 59,-400l0 -4164c0,-180 -20,-312 -59,-396 -39,-84 -113,-142 -224,-175 -111,-33 -284,-50 -518,-50 -12,0 -18,-18 -18,-54 0,-36 6,-54 18,-54l441 9c252,12 450,18 594,18 144,0 309,-9 494,-27 468,-18 723,-27 765,-27 528,0 956,122 1286,365 330,242 495,613 495,1110 0,402 -99,739 -297,1012 -198,273 -448,475 -751,607 -303,132 -616,198 -940,198 -180,0 -327,-15 -441,-45 -18,0 -27,-15 -27,-45 0,-18 5,-36 14,-54 9,-18 19,-24 31,-18 96,24 204,36 324,36 426,0 787,-129 1084,-386 297,-258 445,-633 445,-1125 0,-318 -63,-592 -189,-823 -126,-231 -298,-407 -517,-530 -219,-123 -460,-185 -724,-185 -246,0 -420,12 -522,36 -102,24 -175,80 -220,167 -45,87 -67,238 -67,454l0 4110z"/>
  <path id="1" class="fil1" d="M6589 3151c0,239 57,446 171,620 114,174 253,320 418,436 165,117 394,263 688,437 312,186 553,340 724,463 171,123 318,280 441,472 123,192 184,423 184,693 0,281 -69,538 -207,769 -138,231 -343,413 -616,548 -273,135 -607,203 -1003,203 -210,0 -409,-23 -598,-68 -189,-45 -397,-124 -625,-238 -30,-18 -49,-39 -58,-63 -9,-24 -17,-60 -23,-108l-135 -1169 0 -9c0,-24 15,-38 45,-41 30,-3 48,8 54,32 60,413 219,773 477,1079 258,306 611,459 1061,459 318,0 586,-87 805,-261 219,-174 328,-447 328,-819 0,-269 -59,-502 -179,-697 -120,-194 -266,-356 -437,-485 -171,-129 -403,-281 -697,-455 -288,-167 -514,-314 -679,-440 -165,-126 -306,-284 -423,-472 -116,-189 -175,-416 -175,-680 0,-299 77,-554 229,-764 153,-210 353,-367 599,-472 245,-105 509,-158 791,-158 330,0 672,72 1025,216 90,36 135,87 135,153l81 954c0,24 -16,36 -49,36 -33,0 -53,-12 -59,-36 -24,-312 -141,-591 -350,-837 -210,-246 -510,-369 -900,-369 -360,0 -623,105 -791,315 -168,210 -252,462 -252,756z"/>
  <polygon class="fil0" points="605,4593 9469,4593 9469,5890 605,5890 "/>
  <path class="fil1" d="M1198 4853c100,0 149,53 149,159l0 154c0,106 -49,159 -149,159l-135 0 0 304 -168 0 0 -776 303 0zm-19 333l0 -193c0,-7 -2,-12 -6,-17 -5,-5 -10,-7 -17,-7l-93 0 0 241 93 0c7,0 12,-3 17,-8 4,-4 6,-10 6,-16z"/>
  <polygon id="1" class="fil1" points="1865,5490 2051,5490 2051,5629 1698,5629 1698,4853 2051,4853 2051,4990 1865,4990 1865,5172 2039,5172 2039,5304 1865,5304 "/>
  <path id="2" class="fil1" d="M2583 5312l0 317 -168 0 0 -776 299 0c99,0 148,53 148,159l0 90c0,64 -22,104 -68,122 40,14 60,47 60,98l0 307 -168 0 0 -293c0,-16 -8,-24 -23,-24l-80 0zm0 -345l0 227 89 0c6,0 11,-2 16,-7 4,-5 6,-11 6,-17l0 -179c0,-6 -2,-12 -6,-16 -5,-5 -10,-8 -16,-8l-89 0z"/>
  <polygon id="3" class="fil1" points="3405,5325 3405,5629 3237,5629 3237,4853 3587,4853 3587,4999 3405,4999 3405,5184 3575,5184 3575,5325 "/>
  <polygon id="4" class="fil1" points="4120,5490 4306,5490 4306,5629 3952,5629 3952,4853 4306,4853 4306,4990 4120,4990 4120,5172 4294,5172 4294,5304 4120,5304 "/>
  <path id="5" class="fil1" d="M4958 5502l0 -120 160 0 0 101c0,106 -50,158 -149,158l-151 0c-99,0 -149,-52 -149,-158l0 -483c0,-106 50,-159 149,-159l151 0c99,0 149,53 149,159l0 73 -160 0 0 -94c0,-6 -2,-12 -6,-16 -5,-5 -10,-8 -16,-8l-76 0c-6,0 -12,3 -16,8 -5,4 -7,10 -7,16l0 523c0,7 2,12 7,17 4,5 10,7 16,7l76 0c6,0 11,-2 16,-7 4,-5 6,-10 6,-17z"/>
  <polygon id="6" class="fil1" points="5441,4996 5441,4853 5860,4853 5860,4996 5735,4996 5735,5629 5567,5629 5567,4996 "/>
  <path id="7" class="fil1" d="M6610 5057l-159 0 0 -61c0,-6 -3,-12 -7,-17 -4,-4 -10,-7 -16,-7l-66 0c-7,0 -12,3 -16,7 -5,5 -7,11 -7,17l0 138c0,6 2,12 7,17 4,5 9,7 16,7l108 0c99,2 148,54 148,158l0 167c0,106 -49,158 -148,158l-142 0c-99,0 -149,-52 -149,-158l0 -80 160 0 0 86c0,6 2,12 7,17 4,5 9,7 16,7l74 0c7,0 12,-2 16,-7 5,-5 7,-11 7,-17l0 -152c0,-7 -2,-12 -7,-17 -4,-5 -9,-7 -16,-7l-108 0c-99,0 -149,-53 -149,-159l0 -154c0,-106 50,-159 149,-159l133 0c99,0 149,53 149,159l0 57z"/>
  <polygon id="8" class="fil1" points="6951,4996 6951,4853 7371,4853 7371,4996 7245,4996 7245,5629 7077,5629 7077,4996 "/>
  <path id="9" class="fil1" d="M8171 5000l0 483c0,106 -50,158 -149,158l-159 0c-100,0 -149,-52 -149,-158l0 -483c0,-106 49,-159 149,-159l159 0c99,0 149,53 149,159zm-168 502l0 -523c0,-6 -2,-12 -7,-16 -4,-5 -9,-8 -16,-8l-75 0c-7,0 -12,3 -17,8 -4,4 -6,10 -6,16l0 523c0,7 2,12 6,17 5,5 10,7 17,7l75 0c7,0 12,-2 16,-7 5,-5 7,-10 7,-17z"/>
  <path id="10" class="fil1" d="M8728 5629l-168 0 0 -629c0,-106 49,-159 148,-159l89 0c59,0 100,20 125,58 23,-38 65,-58 125,-58l88 0c99,0 149,53 149,159l0 629 -168 0 0 -644c0,-6 -2,-12 -6,-16 -5,-5 -10,-8 -17,-8l-64 0c-7,0 -12,3 -17,8 -4,4 -6,10 -6,16l0 644 -168 0 0 -644c0,-6 -2,-12 -7,-16 -4,-5 -9,-8 -16,-8l-65 0c-6,0 -11,3 -16,8 -4,4 -6,10 -6,16l0 644z"/>
 </g>
</svg>
