<?xml version="1.0" encoding="UTF-8"?>
<!DOCTYPE svg PUBLIC "-//W3C//DTD SVG 1.1//EN" "http://www.w3.org/Graphics/SVG/1.1/DTD/svg11.dtd">
<!-- Creator: CorelDRAW X8 -->
<svg xmlns="http://www.w3.org/2000/svg" xml:space="preserve" width="132.292mm" height="131.939mm" version="1.1" style="shape-rendering:geometricPrecision; text-rendering:geometricPrecision; image-rendering:optimizeQuality; fill-rule:evenodd; clip-rule:evenodd"
viewBox="0 0 13229 13194"
 xmlns:xlink="http://www.w3.org/1999/xlink">
 <defs>
  <style type="text/css">
   <![CDATA[
    .fil1 {fill:#FEFEFE;fill-rule:nonzero}
    .fil0 {fill:#163F57;fill-rule:nonzero}
   ]]>
  </style>
 </defs>
 <g id="Слой_x0020_1">
  <metadata id="CorelCorpID_0Corel-Layer"/>
  <path class="fil0" d="M3671 8392c0,192 27,331 81,418 54,87 158,148 311,184 152,36 397,54 733,54 18,0 27,18 27,54 0,36 -9,54 -27,54 -246,0 -438,-3 -576,-9l-783 -9 -593 9c-108,6 -258,9 -450,9 -12,0 -18,-18 -18,-54 0,-36 6,-54 18,-54 234,0 406,-15 517,-45 111,-30 186,-88 225,-175 39,-87 59,-220 59,-400l0 -4165c0,-180 -20,-312 -59,-395 -39,-84 -114,-143 -225,-176 -111,-33 -283,-49 -517,-49 -12,0 -18,-18 -18,-54 0,-36 6,-54 18,-54l441 9c252,12 450,18 593,18 144,0 309,-9 495,-27 468,-18 723,-27 765,-27 527,0 956,121 1286,364 330,243 495,613 495,1111 0,402 -99,739 -297,1012 -198,273 -448,475 -751,607 -303,132 -616,198 -940,198 -180,0 -327,-15 -441,-45 -18,0 -27,-15 -27,-45 0,-18 5,-36 14,-54 9,-18 19,-24 31,-18 96,24 204,36 324,36 426,0 787,-129 1084,-387 296,-258 445,-633 445,-1124 0,-318 -63,-592 -189,-823 -126,-231 -298,-408 -517,-531 -219,-123 -460,-184 -724,-184 -246,0 -420,12 -522,36 -102,24 -175,79 -220,166 -45,87 -68,238 -68,454l0 4111z"/>
  <path id="1" class="fil0" d="M8097 4623c0,240 56,447 170,621 114,174 254,319 419,436 165,117 394,262 688,436 312,186 553,340 724,463 171,123 318,281 440,473 123,191 185,422 185,692 0,282 -69,538 -207,769 -138,231 -343,414 -616,549 -273,135 -607,202 -1003,202 -210,0 -409,-22 -598,-67 -189,-45 -397,-125 -625,-239 -30,-18 -50,-39 -59,-63 -9,-24 -16,-60 -22,-108l-135 -1169 0 -9c0,-24 15,-37 45,-40 30,-3 48,7 54,31 60,414 219,774 477,1079 257,306 611,459 1061,459 318,0 586,-87 805,-261 219,-174 328,-446 328,-818 0,-270 -60,-502 -180,-697 -120,-195 -265,-357 -436,-486 -171,-129 -403,-280 -697,-454 -288,-168 -514,-315 -679,-441 -165,-126 -306,-283 -423,-472 -117,-189 -175,-415 -175,-679 0,-300 76,-555 229,-765 153,-209 352,-367 598,-472 246,-105 510,-157 792,-157 330,0 671,72 1025,216 90,36 135,87 135,153l81 953c0,24 -16,36 -49,36 -33,0 -53,-12 -59,-36 -24,-312 -141,-591 -351,-837 -210,-245 -509,-368 -899,-368 -360,0 -624,105 -792,315 -168,209 -251,461 -251,755z"/>
  <polygon class="fil1" points="2113,6066 10976,6066 10976,7362 2113,7362 "/>
  <path class="fil0" d="M2750 6279c122,0 183,65 183,196l0 190c0,130 -61,196 -183,196l-167 0 0 375 -207 0 0 -957 374 0zm-24 410l0 -238c0,-8 -2,-15 -8,-21 -5,-6 -12,-9 -20,-9l-115 0 0 298 115 0c8,0 15,-3 20,-9 6,-6 8,-13 8,-21z"/>
  <polygon id="1" class="fil0" points="3364,7065 3593,7065 3593,7236 3157,7236 3157,6279 3593,6279 3593,6448 3364,6448 3364,6673 3578,6673 3578,6835 3364,6835 "/>
  <path id="2" class="fil0" d="M4039 6844l0 392 -207 0 0 -957 368 0c123,0 184,65 184,196l0 110c0,79 -28,130 -84,151 49,18 73,58 73,122l0 378 -207 0 0 -362c0,-20 -9,-30 -28,-30l-99 0zm0 -424l0 279 110 0c8,0 14,-3 20,-9 5,-5 8,-12 8,-20l0 -221c0,-8 -3,-14 -8,-20 -6,-6 -12,-9 -20,-9l-110 0z"/>
  <polygon id="3" class="fil0" points="4843,6861 4843,7236 4636,7236 4636,6279 5068,6279 5068,6458 4843,6458 4843,6688 5054,6688 5054,6861 "/>
  <polygon id="4" class="fil0" points="5516,7065 5745,7065 5745,7236 5309,7236 5309,6279 5745,6279 5745,6448 5516,6448 5516,6673 5731,6673 5731,6835 5516,6835 "/>
  <path id="5" class="fil0" d="M6341 7079l0 -147 197 0 0 124c0,130 -61,195 -184,195l-186 0c-122,0 -183,-65 -183,-195l0 -596c0,-130 61,-195 183,-195l186 0c123,0 184,65 184,195l0 90 -197 0 0 -115c0,-8 -3,-15 -8,-21 -5,-6 -12,-9 -20,-9l-93 0c-8,0 -15,3 -20,9 -6,6 -8,13 -8,21l0 644c0,8 2,15 8,21 5,6 12,9 20,9l93 0c8,0 15,-3 20,-9 5,-6 8,-13 8,-21z"/>
  <polygon id="6" class="fil0" points="6727,6455 6727,6279 7245,6279 7245,6455 7089,6455 7089,7236 6882,7236 6882,6455 "/>
  <path id="7" class="fil0" d="M8169 6531l-197 0 0 -76c0,-8 -2,-14 -8,-20 -5,-6 -12,-9 -20,-9l-81 0c-8,0 -15,3 -20,9 -6,6 -8,12 -8,20l0 170c0,8 2,15 8,21 5,6 12,9 20,9l133 0c122,2 183,67 183,195l0 206c0,130 -61,195 -183,195l-175 0c-122,0 -183,-65 -183,-195l0 -99 197 0 0 106c0,8 2,15 8,21 5,6 12,9 20,9l91 0c8,0 15,-3 20,-9 6,-6 9,-13 9,-21l0 -188c0,-8 -3,-14 -9,-20 -5,-6 -12,-9 -20,-9l-133 0c-122,0 -183,-65 -183,-195l0 -191c0,-130 61,-195 183,-195l165 0c122,0 183,65 183,195l0 71z"/>
  <polygon id="8" class="fil0" points="8380,6455 8380,6279 8898,6279 8898,6455 8742,6455 8742,7236 8535,7236 8535,6455 "/>
  <path id="9" class="fil0" d="M9675 6460l0 596c0,130 -61,195 -183,195l-197 0c-122,0 -183,-65 -183,-195l0 -596c0,-130 61,-195 183,-195l197 0c122,0 183,65 183,195zm-207 619l0 -644c0,-8 -2,-15 -8,-21 -5,-6 -12,-9 -20,-9l-93 0c-8,0 -14,3 -20,9 -5,6 -8,13 -8,21l0 644c0,8 3,15 8,21 6,6 12,9 20,9l93 0c8,0 15,-3 20,-9 6,-6 8,-13 8,-21z"/>
  <path id="10" class="fil0" d="M10153 7236l-207 0 0 -776c0,-130 61,-195 183,-195l110 0c72,0 123,23 153,70 29,-47 80,-70 154,-70l110 0c122,0 183,65 183,195l0 776 -207 0 0 -794c0,-8 -3,-15 -8,-21 -5,-6 -12,-9 -20,-9l-80 0c-8,0 -14,3 -20,9 -5,6 -8,13 -8,21l0 794 -207 0 0 -794c0,-8 -3,-15 -8,-21 -6,-6 -12,-9 -20,-9l-80 0c-8,0 -15,3 -20,9 -5,6 -8,13 -8,21l0 794z"/>
  <path class="fil0" d="M4807 10165c-41,0 -74,14 -98,42 -24,28 -36,65 -36,113 0,50 12,88 35,115 23,27 56,41 99,41 26,0 56,-5 90,-15l0 39c-26,10 -58,15 -97,15 -56,0 -99,-17 -129,-51 -30,-34 -45,-82 -45,-144 0,-39 7,-73 22,-102 14,-30 35,-52 63,-68 27,-16 60,-24 97,-24 40,0 74,8 104,22l-19 38c-28,-14 -57,-21 -86,-21z"/>
  <path id="1" class="fil0" d="M5164 10344c54,0 81,-15 81,-45 0,-28 -22,-41 -65,-41 -14,0 -26,1 -36,3 -11,3 -26,7 -43,15l-15 -35c29,-13 61,-20 96,-20 32,0 58,7 77,20 18,13 28,32 28,55 0,31 -18,52 -53,62l0 2c21,6 37,16 47,27 10,12 15,27 15,45 0,26 -10,46 -31,61 -22,14 -51,22 -88,22 -41,0 -72,-6 -95,-19l0 -39c32,15 64,22 96,22 25,0 44,-4 56,-13 13,-8 19,-20 19,-36 0,-33 -26,-50 -80,-50l-39 0 0 -36 30 0z"/>
  <path id="2" class="fil0" d="M5540 10509l-9 -40 -2 0c-14,18 -28,30 -42,36 -14,7 -31,10 -52,10 -28,0 -50,-8 -66,-22 -16,-15 -24,-35 -24,-62 0,-57 45,-87 137,-90l48 -1 0 -18c0,-22 -5,-39 -14,-49 -10,-11 -25,-16 -46,-16 -24,0 -51,7 -80,22l-13 -33c13,-8 29,-14 45,-18 17,-4 34,-6 50,-6 34,0 59,7 75,22 17,15 25,39 25,72l0 193 -32 0zm-97 -30c27,0 48,-7 63,-22 15,-14 23,-35 23,-61l0 -26 -43 2c-34,1 -59,7 -74,16 -15,9 -22,24 -22,44 0,15 4,27 14,35 9,8 22,12 39,12z"/>
  <path id="3" class="fil0" d="M5646 10340c0,-62 9,-111 27,-145 18,-35 47,-57 87,-65 49,-11 92,-19 130,-26l8 38c-60,10 -103,18 -128,24 -25,5 -44,19 -56,40 -13,21 -20,50 -21,86l3 0c11,-14 25,-25 41,-34 17,-8 35,-12 53,-12 35,0 62,11 82,34 19,22 29,54 29,94 0,44 -11,78 -34,103 -22,25 -54,38 -94,38 -40,0 -71,-16 -94,-46 -22,-31 -33,-74 -33,-129zm131 139c52,0 78,-34 78,-101 0,-64 -23,-96 -71,-96 -13,0 -26,3 -38,9 -12,5 -23,12 -33,21 -10,9 -18,18 -24,28 0,45 8,80 22,103 14,24 36,36 66,36z"/>
  <path id="4" class="fil0" d="M6220 10368c0,46 -12,82 -35,108 -23,26 -55,39 -96,39 -25,0 -48,-6 -68,-18 -19,-12 -34,-29 -45,-51 -11,-23 -16,-49 -16,-78 0,-47 12,-83 35,-108 23,-26 55,-39 96,-39 39,0 71,13 94,40 23,26 35,62 35,107zm-216 0c0,36 8,63 22,82 15,19 36,29 64,29 28,0 49,-10 64,-29 14,-18 22,-46 22,-82 0,-36 -8,-64 -22,-82 -15,-19 -36,-28 -65,-28 -28,0 -49,9 -63,27 -14,19 -22,46 -22,83z"/>
  <polygon id="5" class="fil0" points="6481,10263 6389,10263 6389,10509 6346,10509 6346,10263 6255,10263 6255,10226 6481,10226 "/>
  <path id="6" class="fil0" d="M6776 10368c0,46 -11,82 -34,108 -24,26 -56,39 -97,39 -25,0 -48,-6 -67,-18 -20,-12 -35,-29 -46,-51 -11,-23 -16,-49 -16,-78 0,-47 12,-83 35,-108 23,-26 55,-39 96,-39 40,0 71,13 94,40 24,26 35,62 35,107zm-215 0c0,36 7,63 21,82 15,19 36,29 64,29 28,0 50,-10 64,-29 15,-18 22,-46 22,-82 0,-36 -7,-64 -22,-82 -14,-19 -36,-28 -64,-28 -28,0 -50,9 -64,27 -14,19 -21,46 -21,83z"/>
  <path id="7" class="fil0" d="M6892 10226l0 180 -2 47 -1 15 154 -242 53 0 0 283 -40 0 0 -173 1 -34 1 -33 -153 240 -53 0 0 -283 40 0zm81 -37c-32,0 -55,-6 -70,-19 -15,-12 -23,-32 -24,-61l40 0c1,18 6,31 14,38 8,7 21,10 41,10 18,0 31,-3 39,-11 9,-8 14,-20 16,-37l40 0c-2,28 -10,48 -26,61 -15,12 -38,19 -70,19z"/>
  <path id="8" class="fil0" d="M7569 10368c0,46 -12,82 -35,108 -23,26 -55,39 -96,39 -26,0 -48,-6 -68,-18 -19,-12 -35,-29 -45,-51 -11,-23 -16,-49 -16,-78 0,-47 11,-83 34,-108 23,-26 56,-39 96,-39 40,0 72,13 95,40 23,26 35,62 35,107zm-216 0c0,36 7,63 22,82 14,19 36,29 64,29 28,0 49,-10 64,-29 14,-18 21,-46 21,-82 0,-36 -7,-64 -21,-82 -15,-19 -36,-28 -65,-28 -28,0 -49,9 -63,27 -15,19 -22,46 -22,83z"/>
  <path id="9" class="fil0" d="M7788 10132l107 0c50,0 86,7 109,22 22,15 33,39 33,71 0,23 -6,41 -19,56 -12,14 -30,24 -54,28l0 2c57,10 86,40 86,91 0,34 -12,60 -34,79 -23,19 -55,28 -96,28l-132 0 0 -377zm44 162l72 0c31,0 54,-5 67,-15 14,-10 21,-26 21,-49 0,-22 -8,-37 -23,-46 -15,-10 -39,-14 -72,-14l-65 0 0 124zm0 37l0 141 79 0c30,0 53,-6 69,-18 15,-12 23,-30 23,-55 0,-24 -8,-41 -24,-52 -16,-11 -40,-16 -72,-16l-75 0z"/>
  <path id="10" class="fil0" d="M8299 10509l-9 -40 -2 0c-14,18 -28,30 -42,36 -14,7 -32,10 -53,10 -28,0 -50,-8 -66,-22 -16,-15 -24,-35 -24,-62 0,-57 46,-87 137,-90l48 -1 0 -18c0,-22 -4,-39 -14,-49 -9,-11 -25,-16 -46,-16 -23,0 -50,7 -80,22l-13 -33c14,-8 29,-14 46,-18 17,-4 33,-6 50,-6 34,0 59,7 75,22 16,15 24,39 24,72l0 193 -31 0zm-97 -30c26,0 47,-7 63,-22 15,-14 23,-35 23,-61l0 -26 -43 2c-34,1 -59,7 -74,16 -15,9 -23,24 -23,44 0,15 5,27 14,35 10,8 23,12 40,12z"/>
  <path id="11" class="fil0" d="M8532 10515c-41,0 -73,-13 -95,-38 -23,-25 -34,-61 -34,-107 0,-48 11,-84 34,-110 23,-26 56,-39 98,-39 13,0 27,2 41,4 13,3 24,7 32,11l-14 36c-9,-4 -19,-7 -31,-9 -11,-3 -21,-4 -29,-4 -58,0 -86,37 -86,110 0,35 6,62 20,80 15,19 35,28 63,28 23,0 48,-5 73,-15l0 38c-19,10 -43,15 -72,15z"/>
 </g>
</svg>
