<?xml version="1.0" encoding="UTF-8"?>
<!DOCTYPE svg PUBLIC "-//W3C//DTD SVG 1.1//EN" "http://www.w3.org/Graphics/SVG/1.1/DTD/svg11.dtd">
<!-- Creator: CorelDRAW X8 -->
<svg xmlns="http://www.w3.org/2000/svg" xml:space="preserve" width="132.292mm" height="131.939mm" version="1.1" style="shape-rendering:geometricPrecision; text-rendering:geometricPrecision; image-rendering:optimizeQuality; fill-rule:evenodd; clip-rule:evenodd"
viewBox="0 0 13229 13194"
 xmlns:xlink="http://www.w3.org/1999/xlink">
 <defs>
  <style type="text/css">
   <![CDATA[
    .fil1 {fill:#2C5871;fill-rule:nonzero}
    .fil2 {fill:#FCFCFC;fill-rule:nonzero}
    .fil0 {fill:white;fill-rule:nonzero}
   ]]>
  </style>
 </defs>
 <g id="Слой_x0020_1">
  <metadata id="CorelCorpID_0Corel-Layer"/>
  <path class="fil0" d="M2560 9182c0,266 37,459 112,580 75,120 218,206 430,255 212,50 551,75 1017,75 25,0 37,25 37,75 0,50 -12,75 -37,75 -341,0 -607,-4 -798,-12l-1086 -13 -823 13c-150,8 -358,12 -624,12 -16,0 -25,-25 -25,-75 0,-50 9,-75 25,-75 325,0 564,-20 718,-62 153,-42 257,-123 311,-243 54,-121 81,-306 81,-555l0 -5776c0,-250 -27,-433 -81,-549 -54,-116 -158,-198 -311,-243 -154,-46 -393,-69 -718,-69 -16,0 -25,-25 -25,-75 0,-50 9,-75 25,-75l611 13c350,17 624,25 824,25 199,0 428,-13 686,-38 649,-25 1002,-37 1060,-37 732,0 1327,168 1784,505 457,337 686,851 686,1541 0,557 -137,1025 -411,1403 -275,379 -622,659 -1042,842 -420,183 -855,275 -1304,275 -249,0 -453,-21 -611,-63 -25,0 -37,-20 -37,-62 0,-25 6,-50 18,-75 13,-25 27,-33 44,-25 133,33 283,50 449,50 591,0 1092,-179 1503,-536 412,-358 618,-878 618,-1560 0,-440 -88,-821 -262,-1141 -175,-320 -414,-566 -717,-736 -304,-171 -639,-256 -1005,-256 -341,0 -582,17 -723,50 -142,33 -243,110 -306,231 -62,120 -93,330 -93,630l0 5701z"/>
  <path id="1" class="fil0" d="M8697 3955c0,333 79,619 237,861 158,241 351,442 580,605 229,162 547,363 954,605 433,257 768,472 1005,642 237,171 440,389 611,655 170,266 256,586 256,960 0,391 -96,747 -287,1067 -192,320 -476,574 -855,761 -378,187 -842,281 -1391,281 -291,0 -567,-32 -829,-94 -262,-62 -551,-172 -867,-330 -42,-25 -69,-55 -81,-88 -13,-33 -23,-83 -32,-149l-187 -1622 0 -13c0,-33 21,-52 63,-56 41,-4 66,11 75,44 83,574 303,1073 661,1497 357,424 848,636 1472,636 440,0 813,-121 1116,-362 304,-241 456,-619 456,-1135 0,-374 -84,-696 -250,-967 -166,-270 -368,-494 -605,-673 -237,-179 -559,-389 -967,-630 -399,-233 -713,-437 -942,-612 -228,-174 -424,-392 -586,-654 -162,-262 -243,-576 -243,-942 0,-416 106,-769 318,-1061 212,-291 489,-509 830,-654 340,-146 706,-219 1097,-219 458,0 932,100 1422,300 125,50 187,120 187,212l113 1322c0,33 -23,50 -69,50 -46,0 -73,-17 -81,-50 -33,-432 -195,-819 -486,-1160 -292,-341 -707,-512 -1248,-512 -499,0 -865,146 -1098,437 -233,291 -349,640 -349,1048z"/>
  <polygon class="fil1" points="398,5956 12691,5956 12691,7754 398,7754 "/>
  <path class="fil2" d="M1221 6317c137,0 206,73 206,219l0 215c0,146 -69,219 -206,219l-188 0 0 423 -233 0 0 -1076 421 0zm-27 460l0 -267c0,-9 -3,-17 -9,-24 -6,-6 -13,-10 -22,-10l-130 0 0 335 130 0c9,0 16,-4 22,-10 6,-7 9,-15 9,-24z"/>
  <polygon id="1" class="fil2" points="2146,7200 2404,7200 2404,7393 1913,7393 1913,6317 2404,6317 2404,6506 2146,6506 2146,6759 2387,6759 2387,6942 2146,6942 "/>
  <path id="2" class="fil2" d="M3141 6952l0 441 -233 0 0 -1076 414 0c138,0 207,73 207,219l0 125c0,89 -32,145 -95,170 55,20 83,65 83,136l0 426 -233 0 0 -408c0,-22 -10,-33 -31,-33l-112 0zm0 -477l0 314 123 0c9,0 17,-3 23,-10 6,-7 9,-14 9,-23l0 -248c0,-9 -3,-17 -9,-23 -6,-7 -14,-10 -23,-10l-123 0z"/>
  <polygon id="3" class="fil2" points="4281,6970 4281,7393 4048,7393 4048,6317 4534,6317 4534,6518 4281,6518 4281,6776 4517,6776 4517,6970 "/>
  <polygon id="4" class="fil2" points="5273,7200 5530,7200 5530,7393 5040,7393 5040,6317 5530,6317 5530,6506 5273,6506 5273,6759 5514,6759 5514,6942 5273,6942 "/>
  <path id="5" class="fil2" d="M6436 7216l0 -166 221 0 0 140c0,146 -69,219 -206,219l-210 0c-137,0 -206,-73 -206,-219l0 -671c0,-146 69,-219 206,-219l210 0c137,0 206,73 206,219l0 102 -221 0 0 -130c0,-9 -3,-16 -10,-23 -6,-7 -13,-10 -22,-10l-105 0c-9,0 -16,3 -22,10 -6,7 -9,14 -9,23l0 725c0,9 3,17 9,24 6,6 13,10 22,10l105 0c9,0 16,-4 22,-10 7,-7 10,-15 10,-24z"/>
  <polygon id="6" class="fil2" points="7105,6515 7105,6317 7687,6317 7687,6515 7512,6515 7512,7393 7279,7393 7279,6515 "/>
  <path id="7" class="fil2" d="M8726 6599l-221 0 0 -84c0,-9 -3,-17 -9,-24 -6,-6 -14,-10 -22,-10l-92 0c-9,0 -16,4 -22,10 -6,7 -9,15 -9,24l0 191c0,9 3,16 9,23 6,7 13,10 22,10l150 0c137,2 206,75 206,220l0 231c0,146 -69,219 -206,219l-196 0c-138,0 -207,-73 -207,-219l0 -112 222 0 0 120c0,9 3,17 9,23 6,7 13,10 22,10l103 0c9,0 17,-3 23,-10 6,-6 9,-14 9,-23l0 -211c0,-9 -3,-17 -9,-23 -6,-7 -14,-10 -23,-10l-149 0c-138,0 -207,-74 -207,-220l0 -215c0,-146 69,-219 207,-219l184 0c138,0 206,73 206,219l0 80z"/>
  <polygon id="8" class="fil2" points="9199,6515 9199,6317 9781,6317 9781,6515 9607,6515 9607,7393 9374,7393 9374,6515 "/>
  <path id="9" class="fil2" d="M10891 6519l0 671c0,146 -69,219 -206,219l-221 0c-138,0 -207,-73 -207,-219l0 -671c0,-146 69,-219 207,-219l221 0c137,0 206,73 206,219zm-233 697l0 -725c0,-9 -3,-16 -9,-23 -6,-7 -13,-10 -22,-10l-105 0c-9,0 -16,3 -23,10 -6,7 -9,14 -9,23l0 725c0,9 3,17 9,24 7,6 14,10 23,10l105 0c9,0 16,-4 22,-10 6,-7 9,-15 9,-24z"/>
  <path id="10" class="fil2" d="M11663 7393l-233 0 0 -874c0,-146 69,-219 207,-219l123 0c81,0 138,27 173,80 32,-53 90,-80 173,-80l123 0c137,0 206,73 206,219l0 874 -233 0 0 -893c0,-9 -3,-17 -9,-24 -6,-6 -14,-10 -22,-10l-90 0c-9,0 -17,4 -23,10 -6,7 -9,15 -9,24l0 893 -233 0 0 -893c0,-9 -3,-17 -9,-24 -6,-6 -13,-10 -22,-10l-90 0c-9,0 -16,4 -23,10 -6,7 -9,15 -9,24l0 893z"/>
 </g>
</svg>
