<?xml version="1.0" encoding="UTF-8"?>
<!DOCTYPE svg PUBLIC "-//W3C//DTD SVG 1.1//EN" "http://www.w3.org/Graphics/SVG/1.1/DTD/svg11.dtd">
<!-- Creator: CorelDRAW X8 -->
<svg xmlns="http://www.w3.org/2000/svg" xml:space="preserve" width="189.794mm" height="189.794mm" version="1.1" style="shape-rendering:geometricPrecision; text-rendering:geometricPrecision; image-rendering:optimizeQuality; fill-rule:evenodd; clip-rule:evenodd"
viewBox="0 0 18979 18979"
 xmlns:xlink="http://www.w3.org/1999/xlink">
 <defs>
  <style type="text/css">
   <![CDATA[
    .str0 {stroke:#FEFEFE;stroke-width:16.09;stroke-linecap:round}
    .fil3 {fill:none;fill-rule:nonzero}
    .fil1 {fill:#FEFEFE}
    .fil2 {fill:#FEFEFE;fill-rule:nonzero}
    .fil0 {fill:#E42D24;fill-rule:nonzero}
   ]]>
  </style>
 </defs>
 <g id="Слой_x0020_1">
  <metadata id="CorelCorpID_0Corel-Layer"/>
  <path class="fil0" d="M19000 9946c-243,5029 -4397,9033 -9487,9033l-3 0c-5246,0 -9498,-4253 -9498,-9500 0,-5246 4253,-9500 9500,-9500 5090,0 9245,4004 9488,9034l0 933z"/>
  <path class="fil1" d="M8798 4428c-12,-356 -73,-826 -168,-821 -103,7 -141,542 -97,900 15,114 38,201 68,256 46,19 92,36 138,51 42,-36 68,-138 59,-386z"/>
  <path class="fil1" d="M10103 4864c79,-38 137,-83 156,-131 12,-30 19,-86 19,-159 0,-292 -88,-851 -129,-1121l-22 -141 -4 -28c-35,-250 -75,-534 -538,-605 -122,-19 -212,-2 -275,51 -163,138 -160,523 -157,969l1 127c2,442 4,824 108,992 33,54 96,93 179,117 22,0 43,1 65,1 206,0 406,-25 597,-72z"/>
  <path class="fil1" d="M9512 1026c-1345,0 -2434,1085 -2434,2424 0,812 402,1530 1017,1970 17,-19 29,-69 39,-111l4 -17c61,-256 75,-502 45,-798 -17,-177 -44,-282 -70,-374 -26,-100 -48,-186 -46,-320 2,-121 27,-204 53,-293 32,-102 67,-216 72,-415 13,-386 53,-482 168,-594 115,-112 150,-158 150,-240 0,-82 -109,-269 82,-466 123,-125 243,-171 328,-171 49,0 87,15 109,37 61,65 44,189 -78,353 -123,166 -119,238 -112,276 8,38 45,90 117,146 55,44 118,95 159,168 77,138 122,270 184,452l17 52c55,159 203,215 465,215 262,0 539,-170 539,-302 0,-130 -54,-146 -54,-258 0,-112 167,-436 420,-436 129,0 196,94 133,223 -61,128 -184,310 -184,391 0,149 222,34 361,-81 142,-114 173,-146 270,-317 59,-106 144,-126 200,-99 62,32 101,123 45,255 -44,102 -163,231 -290,369 -169,182 -360,390 -360,523 0,679 383,1271 427,1336 43,64 67,86 80,92 358,-420 575,-963 577,-1556l0 -21c-5,-1334 -1093,-2413 -2433,-2413z"/>
  <path class="fil1" d="M11035 5295c24,-113 -259,-755 -416,-683 -121,57 -74,713 51,922 13,21 40,25 70,20 94,-54 184,-114 269,-180 11,-21 20,-46 26,-79z"/>
  <path class="fil2" d="M4322 7776l0 374 199 0c64,0 115,-17 153,-52 39,-35 58,-82 58,-141 0,-56 -19,-99 -55,-131 -36,-32 -86,-49 -150,-50l-205 0zm542 -437l-542 0 0 235 195 0c143,0 257,35 340,104 84,69 126,163 126,280 0,118 -42,213 -125,284 -83,72 -194,108 -332,109l-457 0 0 -1215 795 0 0 203z"/>
  <path class="fil2" d="M5627 7326c-80,0 -141,29 -186,87 -45,57 -70,142 -77,252l525 0c-6,-110 -31,-195 -77,-252 -45,-58 -107,-87 -185,-87zm1 837c79,0 141,-30 186,-89 45,-59 70,-144 75,-257l-525 0c6,113 31,198 77,257 45,59 108,89 187,89zm516 -392c0,120 -21,225 -63,315 -43,90 -103,160 -182,209 -79,49 -169,73 -271,73 -101,0 -190,-24 -269,-73 -79,-48 -141,-117 -184,-207 -43,-90 -65,-193 -66,-310l0 -60c0,-120 21,-225 65,-316 43,-91 104,-161 182,-210 79,-48 169,-73 271,-73 101,0 191,25 270,73 78,49 139,119 182,210 43,91 65,196 65,315l0 54z"/>
  <path class="fil2" d="M7307 7136l0 1215 -251 0 0 -1012 -324 0 -20 429c-9,145 -27,259 -55,342 -29,83 -70,144 -125,183 -54,38 -129,58 -224,58l-65 0 0 -201 42 -4c63,-8 108,-45 135,-109 27,-64 44,-179 51,-343l21 -558 815 0z"/>
  <polygon class="fil2" points="7792,8351 7541,8351 7541,7136 7792,7136 "/>
  <polygon class="fil2" points="9014,8351 8763,8351 8763,7339 8276,7339 8276,8351 8026,8351 8026,7136 9014,7136 "/>
  <polygon class="fil2" points="10524,7339 10152,7339 10152,8351 9901,8351 9901,7339 9534,7339 9534,7136 10524,7136 "/>
  <path class="fil2" d="M11127 7326c-79,0 -141,29 -185,87 -45,57 -71,142 -77,252l525 0c-6,-110 -32,-195 -77,-252 -45,-58 -107,-87 -186,-87zm2 837c79,0 141,-30 186,-89 45,-59 70,-144 75,-257l-526 0c7,113 32,198 78,257 45,59 107,89 187,89zm516 -392c0,120 -21,225 -63,315 -43,90 -103,160 -182,209 -79,49 -169,73 -271,73 -101,0 -191,-24 -270,-73 -79,-48 -140,-117 -183,-207 -44,-90 -66,-193 -66,-310l0 -60c0,-120 21,-225 65,-316 43,-91 104,-161 182,-210 79,-48 169,-73 270,-73 102,0 192,25 270,73 79,49 140,119 183,210 43,91 65,196 65,315l0 54z"/>
  <path class="fil2" d="M12808 7136l0 1215 -252 0 0 -1012 -323 0 -20 429c-9,145 -27,259 -56,342 -28,83 -69,144 -124,183 -54,38 -129,58 -224,58l-65 0 0 -201 42 -4c63,-8 108,-45 135,-109 27,-64 44,-179 51,-343l21 -558 815 0z"/>
  <polygon class="fil2" points="13758,7825 13277,7825 13277,8150 13841,8150 13841,8351 13026,8351 13026,7136 13839,7136 13839,7339 13277,7339 13277,7628 13758,7628 "/>
  <path class="fil2" d="M14444 7710l221 -574 271 0 -425 1003 -35 66c-62,109 -159,164 -288,164l-88 -3 -3 -202c14,3 35,4 65,4 36,0 64,-6 85,-19 22,-12 40,-34 54,-67l31 -80 -427 -866 270 0 269 574z"/>
  <path class="fil2" d="M4356 13596l244 0c73,0 128,-17 166,-52 38,-34 57,-82 57,-146 0,-65 -19,-118 -57,-158 -39,-40 -92,-61 -159,-62l-251 0 0 418zm0 221l0 469 -274 0 0 -1330 518 0c100,0 188,18 264,55 76,37 134,88 175,156 41,67 61,144 61,229 0,131 -45,233 -134,309 -89,75 -212,112 -370,112l-240 0z"/>
  <path class="fil2" d="M5470 13790l332 0 -167 -498 -165 498zm406 222l-480 0 -91 274 -292 0 495 -1330 254 0 498 1330 -291 0 -93 -274z"/>
  <path class="fil2" d="M7409 13843c-10,143 -63,256 -158,338 -96,82 -221,123 -377,123 -171,0 -305,-57 -403,-172 -97,-115 -146,-272 -146,-473l0 -81c0,-128 22,-240 67,-338 45,-97 110,-172 194,-224 83,-52 181,-78 291,-78 154,0 277,41 371,123 94,82 148,198 163,346l-274 0c-7,-85 -31,-148 -72,-186 -41,-39 -104,-58 -188,-58 -91,0 -159,32 -205,98 -45,65 -68,167 -69,304l0 101c0,144 21,249 65,315 43,66 112,100 206,100 84,0 148,-20 189,-58 42,-39 66,-99 72,-180l274 0z"/>
  <path class="fil2" d="M8633 13843c-10,143 -63,256 -159,338 -95,82 -220,123 -376,123 -171,0 -305,-57 -403,-172 -97,-115 -146,-272 -146,-473l0 -81c0,-128 22,-240 67,-338 45,-97 110,-172 193,-224 84,-52 181,-78 292,-78 154,0 277,41 371,123 94,82 148,198 163,346l-274 0c-7,-85 -31,-148 -72,-186 -41,-39 -104,-58 -188,-58 -91,0 -159,32 -205,98 -45,65 -68,167 -70,304l0 101c0,144 22,249 66,315 43,66 112,100 206,100 84,0 148,-20 189,-58 42,-39 66,-99 72,-180l274 0z"/>
  <path class="fil2" d="M9087 13596l245 0c72,0 127,-17 165,-52 38,-34 57,-82 57,-146 0,-65 -19,-118 -57,-158 -38,-40 -91,-61 -159,-62l-251 0 0 418zm0 221l0 469 -274 0 0 -1330 519 0c100,0 187,18 263,55 76,37 134,88 175,156 41,67 61,144 61,229 0,131 -44,233 -134,309 -89,75 -212,112 -370,112l-240 0z"/>
  <path class="fil2" d="M10834 13591c0,-139 -25,-245 -75,-318 -50,-72 -121,-109 -214,-109 -91,0 -162,36 -212,108 -50,71 -76,176 -76,314l0 65c0,136 25,241 75,316 50,75 122,113 215,113 92,0 163,-36 212,-109 49,-72 74,-177 75,-315l0 -65zm278 60c0,131 -23,246 -70,345 -46,98 -112,174 -198,228 -86,54 -185,80 -297,80 -110,0 -208,-26 -295,-79 -86,-53 -153,-129 -201,-227 -47,-98 -71,-212 -72,-339l0 -66c0,-131 24,-246 71,-346 47,-99 114,-176 200,-229 86,-53 185,-80 295,-80 111,0 210,27 296,80 86,53 153,130 200,229 47,100 71,215 71,345l0 59z"/>
  <path class="fil2" d="M12372 12956l0 1330 -275 0 0 -504c-83,17 -170,26 -261,26 -169,0 -297,-37 -384,-110 -87,-74 -132,-180 -135,-320l0 -422 275 0 0 417c1,76 19,131 55,164 37,34 100,50 189,50 91,0 178,-8 261,-26l0 -605 275 0z"/>
  <polygon class="fil2" points="13045,13743 12887,13743 12887,14286 12613,14286 12613,12956 12887,12956 12887,13489 13012,13489 13338,12956 13672,12956 13262,13585 13715,14286 13388,14286 "/>
  <path class="fil2" d="M14164 13790l333 0 -168 -498 -165 498zm407 222l-481 0 -91 274 -292 0 496 -1330 253 0 498 1330 -291 0 -92 -274z"/>
  <path class="fil2" d="M5299 10330c0,-189 -25,-330 -74,-423 -49,-93 -127,-140 -234,-140 -105,0 -181,43 -229,130 -47,86 -73,217 -76,393l0 671c0,196 24,339 74,430 49,91 127,136 234,136 104,0 180,-44 229,-133 49,-88 75,-227 76,-415l0 -649zm608 557c0,354 -80,628 -239,820 -160,193 -384,289 -674,289 -292,0 -518,-97 -678,-291 -160,-193 -240,-466 -240,-818l0 -480c0,-354 80,-628 239,-820 160,-193 385,-289 676,-289 290,0 516,97 676,291 160,193 240,467 240,820l0 478z"/>
  <path class="fil2" d="M9032 10330c0,-189 -25,-330 -74,-423 -50,-93 -128,-140 -235,-140 -104,0 -180,43 -228,130 -47,86 -73,217 -77,393l0 671c0,196 25,339 74,430 50,91 128,136 235,136 103,0 179,-44 229,-133 49,-88 74,-227 76,-415l0 -649zm607 557c0,354 -79,628 -239,820 -159,193 -384,289 -673,289 -292,0 -518,-97 -678,-291 -160,-193 -240,-466 -240,-818l0 -480c0,-354 80,-628 239,-820 159,-193 384,-289 675,-289 291,0 516,97 676,291 160,193 240,467 240,820l0 478z"/>
  <polygon class="fil2" points="12656,11979 12046,11979 12046,10038 11447,10213 11447,9752 12600,9353 12656,9353 "/>
  <path class="fil2" d="M14946 11979l-1832 0 0 -397 844 -887c208,-237 312,-425 312,-565 0,-113 -24,-199 -74,-257 -49,-59 -120,-89 -214,-89 -93,0 -168,40 -226,118 -57,79 -86,177 -86,295l-610 0c0,-161 41,-310 121,-446 81,-137 192,-243 336,-320 143,-77 302,-116 479,-116 284,0 502,66 656,197 153,131 230,319 230,564 0,104 -20,204 -58,302 -39,98 -98,201 -180,309 -81,107 -211,251 -392,431l-339 392 1033 0 0 469z"/>
  <path class="fil2" d="M7184 10647c0,182 -148,330 -330,330 -182,0 -330,-148 -330,-330 0,-182 148,-330 330,-330 182,0 330,148 330,330z"/>
  <path class="fil3 str0" d="M7184 10647c0,182 -148,330 -330,330 -182,0 -330,-148 -330,-330 0,-182 148,-330 330,-330 182,0 330,148 330,330z"/>
  <path class="fil2" d="M10877 10647c0,182 -147,330 -330,330 -182,0 -330,-148 -330,-330 0,-182 148,-330 330,-330 183,0 330,148 330,330z"/>
  <path class="fil3 str0" d="M10877 10647c0,182 -147,330 -330,330 -182,0 -330,-148 -330,-330 0,-182 148,-330 330,-330 183,0 330,148 330,330z"/>
 </g>
</svg>
